<?xml version="1.0" encoding="utf-8"?>
<!-- Generator: Adobe Illustrator 24.3.0, SVG Export Plug-In . SVG Version: 6.00 Build 0)  -->
<svg version="1.1" id="레이어_1" xmlns="http://www.w3.org/2000/svg" xmlns:xlink="http://www.w3.org/1999/xlink" x="0px"
	 y="0px" viewBox="0 0 50 50" style="enable-background:new 0 0 50 50;" xml:space="preserve">
<style type="text/css">
	.st0{fill:#FFFFFF;}
	.st1{fill:#AA3A23;}
	.st2{fill:#00224A;}
</style>
<g>
	<g>
		<path class="st0" d="M27.71,2.56c0.13,0,0.53,0.01,1.21,0.05c0.06,0,0.14,0.01,0.24,0.02c0.09,0,0.15,0,0.19,0
			c0.28,0.02,0.48,0.09,0.59,0.21c0.04,0.04,0.08,0.08,0.13,0.13c0.04,0.05,0.06,0.11,0.05,0.2c-0.03,0.44-0.08,1.1-0.15,1.97
			c-0.1,1.41-0.19,2.21-0.26,2.4c-0.13,0.33-0.44,0.48-0.93,0.44c-0.17-0.01-0.45-0.03-0.85-0.06c-0.4-0.03-0.61-0.03-0.65,0
			c-0.03,0.03-0.07,0.5-0.12,1.43c-0.02,0.27-0.03,0.47-0.04,0.61c-0.01,0.14-0.02,0.27-0.03,0.37c0,0.04-0.02,0.09-0.06,0.14
			c-0.04,0.06-0.09,0.08-0.15,0.09c-0.05,0-0.11,0-0.18,0c-0.05,0-0.11-0.01-0.17-0.02c-0.15-0.01-0.25-0.03-0.3-0.07
			c-0.07-0.03-0.11-0.07-0.14-0.12c-0.03-0.05-0.04-0.14-0.03-0.27c0.04-0.6,0.09-1.5,0.17-2.69c0.04-0.53,0.11-1.57,0.21-3.14
			c-0.04-0.01-0.11-0.03-0.23-0.06c-0.11-0.12-0.16-0.22-0.15-0.31c0-0.04,0.03-0.15,0.07-0.34c0.08-0.29,0.16-0.52,0.24-0.68
			c0.07-0.12,0.18-0.2,0.33-0.24C26.86,2.56,27.2,2.55,27.71,2.56z M29.02,5.1c0-0.07-0.01-0.22-0.02-0.45
			c0-0.07-0.02-0.12-0.06-0.17c-0.03-0.04-0.09-0.06-0.19-0.08C28.66,4.4,28.5,4.38,28.3,4.36c-0.04,0-0.09-0.01-0.14-0.02
			c-0.06,0-0.11-0.01-0.13-0.01c-0.28-0.02-0.43,0-0.46,0.08c-0.02,0.06-0.04,0.25-0.06,0.58c-0.01,0.09-0.02,0.21-0.03,0.37
			c-0.01,0.09-0.01,0.29-0.02,0.58c0,0.06,0,0.13,0.02,0.19c0.03,0.06,0.07,0.09,0.12,0.1c0.05,0,0.13,0,0.22,0.01
			c0.47,0.02,0.79,0,0.94-0.07c0.15-0.07,0.24-0.25,0.26-0.54C29.02,5.47,29.03,5.3,29.02,5.1z"/>
		<path class="st0" d="M32.59,6.16c0.06,0.02,0.1,0.03,0.14,0.04c0.04,0.01,0.08,0.02,0.12,0.03c0.05,0.03,0.08,0.05,0.1,0.07
			c0.01,0.03,0.02,0.07,0.02,0.13c0,0.13-0.02,0.27-0.06,0.42l-0.06,0.23c-0.06,0.19-0.15,0.48-0.28,0.86
			c-0.15,0.42-0.3,0.89-0.45,1.43c-0.03,0.09-0.06,0.21-0.1,0.35c-0.05,0.14-0.08,0.26-0.1,0.35c-0.08,0.35-0.14,0.54-0.17,0.6
			c-0.04,0.06-0.09,0.09-0.15,0.09c-0.14,0.01-0.35-0.02-0.64-0.08c-0.16-0.04-0.27-0.06-0.34-0.08c-0.06-0.01-0.11-0.02-0.13-0.03
			c-0.02-0.01-0.04-0.05-0.06-0.1c-0.02-0.06-0.02-0.12,0-0.18c0.02-0.07,0.03-0.13,0.04-0.19c0-0.01,0.01-0.03,0.02-0.08
			c0.06-0.2,0.22-0.77,0.5-1.7c0.23-0.75,0.39-1.27,0.49-1.58c0.05-0.16,0.1-0.28,0.14-0.38c0.07-0.14,0.13-0.22,0.21-0.24
			C31.99,6.11,32.23,6.12,32.59,6.16z M33.24,3.94c0.06,0.02,0.1,0.03,0.14,0.04C33.42,3.99,33.46,4,33.5,4.01
			c0.05,0.03,0.08,0.05,0.1,0.07c0.01,0.03,0.02,0.07,0.02,0.13c-0.01,0.04-0.02,0.12-0.03,0.22c-0.02,0.1-0.04,0.19-0.07,0.27
			c-0.04,0.19-0.07,0.34-0.1,0.43c-0.02,0.08-0.04,0.14-0.06,0.16c-0.04,0.06-0.1,0.09-0.15,0.08c-0.13,0.01-0.34-0.02-0.64-0.08
			c-0.15-0.03-0.26-0.06-0.33-0.07c-0.07-0.02-0.11-0.03-0.13-0.04c-0.02-0.01-0.05-0.04-0.06-0.1c-0.02-0.05-0.02-0.11,0-0.17
			c0.09-0.32,0.15-0.52,0.18-0.6c0.02-0.08,0.04-0.14,0.06-0.19c0.07-0.14,0.13-0.22,0.21-0.24C32.64,3.89,32.89,3.9,33.24,3.94z"/>
		<path class="st0" d="M36.61,4.78c0.45,0.05,0.99,0.21,1.61,0.48c0.08,0.03,0.15,0.06,0.21,0.09c0.2,0.09,0.3,0.17,0.3,0.22
			c0.01,0.13-0.1,0.47-0.34,1.02c-0.13,0.31-0.23,0.51-0.3,0.58c-0.12,0.13-0.23,0.17-0.34,0.13c-0.08-0.03-0.15-0.08-0.21-0.14
			c-0.06-0.06-0.09-0.12-0.09-0.19c0.01-0.04,0.04-0.14,0.11-0.27c0.07-0.14,0.11-0.25,0.13-0.34c0.02-0.05,0.01-0.08-0.01-0.1
			c-0.01-0.01-0.03-0.03-0.05-0.03c-0.08-0.04-0.16-0.07-0.24-0.1c-0.07-0.03-0.13-0.04-0.19-0.05c-0.04,0.01-0.07,0.03-0.1,0.06
			c-0.07,0.1-0.32,0.6-0.76,1.5c-0.44,0.9-0.86,1.8-1.25,2.7c-0.1,0.22-0.25,0.56-0.44,1.02c-0.05,0.13-0.07,0.21-0.06,0.25
			c0.01,0.04,0.04,0.08,0.1,0.11c0.11,0.05,0.27,0.13,0.49,0.22c0.21,0.1,0.38,0.18,0.5,0.24c0.03,0.01,0.05,0.03,0.07,0.06
			c0.02,0.02,0.02,0.06,0.02,0.09c0,0.03-0.01,0.07-0.03,0.12c-0.03,0.07-0.09,0.15-0.17,0.26c-0.14,0.17-0.25,0.27-0.32,0.29
			c-0.03,0.01-0.07,0.01-0.11-0.01c-0.05-0.01-0.08-0.02-0.11-0.03c-0.16-0.07-0.5-0.22-1.03-0.47c-0.09-0.04-0.18-0.09-0.26-0.12
			c-0.59-0.28-0.9-0.46-0.94-0.52c-0.07-0.1-0.1-0.22-0.08-0.35c0.02-0.13,0.12-0.41,0.3-0.83c0.18-0.47,0.55-1.31,1.11-2.5
			c0.2-0.44,0.39-0.84,0.56-1.19c0.4-0.84,0.69-1.43,0.89-1.77c0.17-0.28,0.35-0.43,0.54-0.45C36.16,4.73,36.33,4.75,36.61,4.78z"/>
		<path class="st0" d="M43.68,8.65c0.16-0.01,0.29,0.02,0.4,0.1c0.03,0.02,0.05,0.04,0.07,0.05c0.07,0.08,0.1,0.19,0.09,0.31
			c-0.02,0.11-0.17,0.33-0.46,0.68c-0.14,0.16-0.26,0.29-0.37,0.4c-0.1,0.1-0.22,0.16-0.35,0.18c-0.08,0.01-0.23,0.04-0.46,0.08
			c-1.21,0.2-1.86,0.35-1.94,0.44c-0.05,0.05-0.03,0.44,0.08,1.16c0.12,0.75,0.21,1.33,0.25,1.74c0.01,0.11,0.03,0.26,0.04,0.45
			c0.01,0.16-0.01,0.27-0.05,0.33c-0.01,0.01-0.02,0.02-0.03,0.02c-0.34,0.27-0.63,0.47-0.85,0.6c-0.22,0.12-0.38,0.19-0.48,0.21
			c-0.07,0-0.14-0.02-0.21-0.06c-0.07-0.04-0.11-0.07-0.12-0.08c-0.01-0.01-0.03-0.02-0.05-0.04c-0.04-0.05-0.09-0.17-0.13-0.36
			c-0.05-0.19-0.11-0.55-0.17-1.07c-0.14-1.16-0.25-1.87-0.32-2.14c-0.02-0.01-0.04-0.01-0.07-0.02c-0.02-0.01-0.05,0-0.08,0.02
			c-0.19,0.2-0.34,0.37-0.47,0.51c-0.13,0.15-0.28,0.32-0.45,0.51c-0.07,0.08-0.21,0.25-0.42,0.5c-0.21,0.25-0.35,0.4-0.43,0.47
			c-0.07,0.05-0.18,0.05-0.32,0c-0.09-0.03-0.17-0.07-0.23-0.13c-0.04-0.03-0.08-0.06-0.11-0.1c-0.05-0.06-0.08-0.12-0.08-0.17
			c0-0.05,0.03-0.12,0.1-0.2c0.01-0.01,0.02-0.02,0.02-0.03c0.44-0.49,1.07-1.2,1.89-2.12c0.82-0.93,1.51-1.68,2.06-2.26
			c0.6-0.64,1.04-1.11,1.31-1.39c0.08-0.06,0.15-0.09,0.21-0.07c0.03,0.01,0.07,0.04,0.11,0.09c0.19,0.29,0.24,0.53,0.14,0.72
			c-0.09,0.12-0.21,0.26-0.34,0.41c-0.14,0.15-0.34,0.38-0.61,0.68c0.04,0.04,0.48-0.02,1.34-0.17c0.18-0.02,0.39-0.05,0.62-0.09
			c0.24-0.03,0.43-0.06,0.58-0.08C43.54,8.68,43.64,8.67,43.68,8.65z"/>
	</g>
	<g>
		<path class="st0" d="M9.6,34.85c-0.08,0.09-0.17,0.17-0.28,0.26c-0.1,0.09-0.22,0.18-0.36,0.28c-0.27,0.19-0.46,0.3-0.55,0.31
			c-0.09,0.04-0.16,0.04-0.2,0.02c-0.04-0.02-0.07-0.04-0.08-0.04c-0.23-0.21-0.57-0.52-1-0.94c-0.02,0-0.22,0.15-0.57,0.45
			c-0.36,0.3-0.89,0.74-1.6,1.32c-0.78,0.66-1.34,1.12-1.66,1.37c-0.1,0.08-0.23,0.02-0.39-0.17c-0.01-0.01-0.03-0.03-0.04-0.05
			c-0.19-0.23-0.22-0.39-0.11-0.48c0.27-0.24,0.82-0.71,1.65-1.41c1.33-1.13,2.01-1.72,2.03-1.78c-0.43-0.53-0.71-0.91-0.86-1.14
			c-0.04-0.13-0.03-0.23,0.03-0.29c0.23-0.18,0.46-0.34,0.69-0.46c0.22-0.13,0.41-0.22,0.55-0.26c0.03,0,0.07,0,0.11,0.01
			C7,31.86,7.04,31.88,7.09,31.9c0.09,0.06,0.22,0.17,0.38,0.34c0.17,0.17,0.45,0.46,0.82,0.88c0.33,0.35,0.6,0.64,0.81,0.86
			c0.21,0.22,0.35,0.38,0.44,0.47c0.02,0.03,0.05,0.05,0.06,0.07c0.08,0.09,0.11,0.15,0.1,0.17C9.69,34.73,9.66,34.78,9.6,34.85z"/>
		<path class="st0" d="M13.22,38.06c0.12-0.06,0.25-0.03,0.41,0.09c0.02,0.02,0.04,0.03,0.05,0.05c0.18,0.16,0.22,0.31,0.14,0.46
			c-0.13,0.26-0.71,1.09-1.75,2.5c-1.03,1.41-1.72,2.33-2.07,2.77c-0.12,0.15-0.22,0.24-0.3,0.26c-0.08,0.02-0.2-0.02-0.37-0.12
			C9.09,43.93,8.62,43.57,7.9,43c-0.14-0.12-0.3-0.24-0.47-0.38c-0.27-0.22-0.68-0.54-1.22-0.98c-0.12-0.1-0.19-0.21-0.21-0.32
			c-0.02-0.11,0.04-0.27,0.19-0.48c0.29-0.35,0.74-0.94,1.35-1.77c0.6-0.79,1.36-1.76,2.28-2.91c0.05-0.06,0.09-0.12,0.14-0.18
			c0.1-0.13,0.2-0.19,0.27-0.19c0.08,0.01,0.17,0.04,0.28,0.1c0.13,0.07,0.22,0.14,0.28,0.22c0.06,0.08,0.04,0.21-0.04,0.37
			c-1,1.48-1.77,2.64-2.31,3.48c-0.08,0.17-0.12,0.29-0.11,0.37c0.01,0.08,0.1,0.18,0.26,0.31c0.45,0.37,0.74,0.6,0.86,0.71
			c0.12,0.11,0.27,0.18,0.44,0.22c0.19,0.02,0.35-0.03,0.48-0.16c0.13-0.13,0.22-0.23,0.27-0.3c0.16-0.2,0.47-0.59,0.95-1.18
			C12.51,38.77,13.06,38.14,13.22,38.06z"/>
		<path class="st0" d="M16.52,39.1c0.37,0.04,0.72,0.1,1.06,0.18c0.27,0.07,0.45,0.13,0.52,0.19c0.05,0.06,0.07,0.16,0.05,0.31
			c-0.02,0.15-0.11,0.55-0.27,1.19c-0.09,0.39-0.17,0.68-0.21,0.85c-0.05,0.17-0.1,0.34-0.16,0.5c-0.05,0.16-0.11,0.26-0.18,0.29
			c-0.07,0.04-0.14,0.06-0.21,0.07c-0.07,0.01-0.18,0.02-0.33,0.01c-0.33-0.01-0.52,0.01-0.58,0.05c-0.01,0.01-0.01,0.02-0.02,0.03
			c-0.02,0.07,0.06,0.24,0.22,0.52c0.96,1.62,1.43,2.57,1.42,2.84c0,0.03-0.01,0.07-0.02,0.13c-0.11,0.17-0.24,0.27-0.39,0.27
			c-0.06-0.01-0.33-0.48-0.79-1.4c-0.68-1.22-1.07-1.84-1.19-1.87c-0.02,0-0.1,0.31-0.25,0.93c-0.03,0.13-0.08,0.33-0.14,0.6
			c-0.02,0.09-0.05,0.21-0.09,0.37c-0.03,0.16-0.05,0.26-0.07,0.32c-0.09,0.36-0.17,0.61-0.25,0.76c-0.08,0.14-0.16,0.24-0.24,0.28
			c-0.08,0.04-0.26,0.07-0.53,0.1c-0.03,0.01-0.06,0.01-0.08,0.01c-0.26,0.03-0.43,0.04-0.48,0.03c-0.03-0.01-0.1-0.05-0.2-0.14
			c-0.11-0.08-0.15-0.16-0.14-0.25c0.04-0.28,0.15-0.82,0.32-1.61c0.17-0.79,0.35-1.58,0.54-2.36c0.05-0.21,0.13-0.53,0.23-0.95
			c0.32-1.32,0.51-2,0.59-2.06c0.09-0.07,0.35-0.14,0.77-0.18C15.83,39.08,16.2,39.07,16.52,39.1z M17.47,40.03
			c-0.06-0.07-0.15-0.14-0.28-0.2c-0.02-0.01-0.07-0.03-0.14-0.04c-0.14-0.03-0.3-0.05-0.47-0.06c-0.17-0.01-0.27,0-0.31,0.03
			c-0.02,0.03-0.12,0.37-0.31,1.03c-0.05,0.17-0.12,0.44-0.21,0.79c-0.02,0.08-0.03,0.13-0.01,0.18c0.02,0.03,0.05,0.06,0.09,0.07
			c0.21,0.05,0.45,0.07,0.73,0.06c0.27-0.01,0.44-0.04,0.5-0.09c0.09-0.09,0.19-0.38,0.31-0.86C17.49,40.4,17.52,40.1,17.47,40.03z"
			/>
		<path class="st0" d="M20.84,39.56c0.74-0.16,1.18-0.25,1.33-0.27c0.32-0.05,0.53-0.03,0.64,0.06c0.08,0.05,0.14,0.14,0.19,0.29
			c0.05,0.15,0.13,0.47,0.24,0.98c0.1,0.49,0.18,0.86,0.21,1.12c0.02,0.14,0.03,0.22,0.03,0.24c-0.01,0.14-0.09,0.25-0.23,0.33
			c-0.14,0.08-0.44,0.18-0.9,0.3c-0.56,0.14-0.87,0.25-0.91,0.32c-0.05,0.05,0.01,0.62,0.18,1.72c0.14,0.96,0.25,1.47,0.33,1.52
			c0.05,0.03,0.15,0.03,0.31,0.01c0.16-0.02,0.37-0.07,0.64-0.13c0.27-0.06,0.42-0.1,0.45-0.11c0.08-0.03,0.13-0.07,0.15-0.12
			c0.01-0.05,0.02-0.11,0.01-0.17c0-0.07-0.01-0.16-0.03-0.27c-0.04-0.27-0.04-0.46-0.01-0.57c0.04-0.1,0.13-0.16,0.28-0.18
			c0.16-0.02,0.29,0.02,0.36,0.14c0.08,0.11,0.17,0.36,0.26,0.74c0.05,0.28,0.09,0.45,0.1,0.52c0.07,0.44,0.03,0.72-0.1,0.83
			c-0.1,0.08-0.65,0.21-1.65,0.38c-0.1,0.02-0.23,0.04-0.38,0.07c-0.16,0.02-0.27,0.04-0.33,0.05c-0.5,0.07-0.84,0.1-1.03,0.08
			c-0.18-0.03-0.33-0.13-0.46-0.29c-0.12-0.16-0.21-0.35-0.28-0.58c-0.07-0.24-0.15-0.69-0.25-1.35c-0.03-0.19-0.12-0.82-0.26-1.88
			c-0.08-0.62-0.2-1.57-0.37-2.82c-0.01-0.06,0-0.13,0.05-0.22c0.05-0.1,0.14-0.2,0.28-0.3C19.91,39.83,20.3,39.69,20.84,39.56z
			 M22.55,40.72c0-0.05,0-0.1-0.01-0.14c0-0.04,0-0.08-0.01-0.11c0-0.01-0.01-0.05-0.02-0.14c-0.02-0.09-0.08-0.13-0.19-0.13
			c-0.09,0.01-0.22,0.03-0.4,0.06c-0.44,0.07-0.69,0.15-0.77,0.22c-0.08,0.08-0.1,0.26-0.05,0.56c0.05,0.32,0.1,0.54,0.16,0.68
			c0.02,0.05,0.04,0.09,0.07,0.12c0.02,0.03,0.07,0.04,0.15,0.03c0.04-0.01,0.1-0.02,0.16-0.03c0.06-0.02,0.13-0.04,0.21-0.06
			c0.34-0.09,0.56-0.19,0.64-0.31C22.57,41.35,22.59,41.1,22.55,40.72z"/>
	</g>
	<circle class="st0" cx="25.73" cy="25.26" r="6.62"/>
	<path class="st1" d="M25.69,18.61c-3.78,0-6.85,3.07-6.85,6.85c0,3.78,3.07,6.85,6.85,6.85c3.78,0,6.85-3.07,6.85-6.85
		C32.54,21.68,29.47,18.61,25.69,18.61z M24.82,24.93c-1.25,1.21-2.92,1.52-3.72,0.69c-0.8-0.83-0.44-2.49,0.81-3.7
		c1.25-1.21,2.92-1.52,3.72-0.69C26.44,22.06,26.08,23.71,24.82,24.93z M29.65,29.46c-0.7,0.68-1.63,0.85-2.08,0.39
		c-0.45-0.47-0.24-1.39,0.46-2.07c0.7-0.68,1.63-0.85,2.08-0.38C30.56,27.86,30.35,28.79,29.65,29.46z"/>
	<path class="st2" d="M26.01,37.34h0.07c3.75-0.01,7.05-1.08,9.83-2.55l-7.16,6.95c-0.71,0.69-0.73,1.83-0.04,2.54
		c0.69,0.71,1.83,0.73,2.54,0.04l7.09-6.88l-2.62,7.09c-0.34,0.93,0.13,1.96,1.06,2.31c0.93,0.34,1.96-0.13,2.31-1.06l3.4-9.2V41
		c0,0.99,0.8,1.8,1.8,1.8c0.99,0,1.51-0.83,1.8-1.8c0,0,2.73-8.48,0-15.43s-11.13-11.2-16.93-11.95l-0.18-0.01
		c-0.68,0-1.23,0.55-1.23,1.23c0,0.56,0.37,1.03,0.88,1.18l0.06,0.02c4.07,1.16,7.04,4.91,7.04,9.35c0,5.33-4.29,9.66-9.61,9.72
		l-0.11,0c-0.62,0-1.13,0.5-1.13,1.12S25.39,37.34,26.01,37.34z"/>
	<path class="st2" d="M25.37,13.59H25.3c-3.75,0.01-7.05,1.08-9.83,2.55l7.16-6.95c0.71-0.69,0.73-1.83,0.04-2.54
		c-0.69-0.71-1.83-0.73-2.54-0.04l-7.09,6.88l2.62-7.09C16,5.47,15.53,4.44,14.6,4.09c-0.93-0.34-1.96,0.13-2.31,1.06l-3.4,9.2V9.93
		c0-0.99-0.8-1.8-1.8-1.8c-0.99,0-1.51,0.83-1.8,1.8c0,0-2.73,8.48,0,15.43s11.13,11.2,16.93,11.95l0.18,0.01
		c0.68,0,1.23-0.55,1.23-1.23c0-0.56-0.37-1.03-0.88-1.18l-0.06-0.02c-4.07-1.16-7.04-4.91-7.04-9.35c0-5.33,4.29-9.66,9.61-9.72
		l0.11,0c0.62,0,1.13-0.5,1.13-1.12C26.5,14.09,25.99,13.59,25.37,13.59z"/>
</g>
</svg>
