<?xml version="1.0" encoding="utf-8"?>
<!-- Generator: Adobe Illustrator 24.3.0, SVG Export Plug-In . SVG Version: 6.00 Build 0)  -->
<svg version="1.1" id="레이어_1" xmlns="http://www.w3.org/2000/svg" xmlns:xlink="http://www.w3.org/1999/xlink" x="0px"
	 y="0px" viewBox="0 0 50 50" style="enable-background:new 0 0 50 50;" xml:space="preserve">
<style type="text/css">
	.st0{fill:#FFFFFF;}
	.st1{fill:#AA3A23;}
	.st2{fill:#00224A;}
</style>
<circle class="st0" cx="25.76" cy="25.21" r="6.88"/>
<path class="st1" d="M25.72,18.3c-3.93,0-7.12,3.19-7.12,7.12c0,3.93,3.19,7.12,7.12,7.12c3.93,0,7.12-3.19,7.12-7.12
	C32.84,21.49,29.65,18.3,25.72,18.3z M24.82,24.86c-1.3,1.26-3.03,1.58-3.87,0.72c-0.84-0.87-0.46-2.59,0.85-3.84
	c1.3-1.26,3.03-1.58,3.87-0.71C26.5,21.88,26.12,23.6,24.82,24.86z M29.84,29.57c-0.73,0.7-1.7,0.88-2.16,0.4
	c-0.47-0.48-0.25-1.44,0.47-2.15c0.73-0.7,1.69-0.88,2.16-0.4C30.77,27.91,30.56,28.87,29.84,29.57z"/>
<path class="st2" d="M26.05,37.76h0.08c3.9-0.01,7.33-1.12,10.21-2.65l-7.44,7.23c-0.74,0.72-0.76,1.9-0.04,2.64
	c0.72,0.74,1.9,0.76,2.64,0.04l7.37-7.16l-2.72,7.37c-0.36,0.97,0.14,2.04,1.1,2.4c0.97,0.36,2.04-0.14,2.4-1.1l3.53-9.56v4.6
	c0,1.03,0.84,1.87,1.87,1.87c1.03,0,1.57-0.86,1.87-1.87c0,0,2.83-8.82,0-16.04S35.34,13.88,29.32,13.11l-0.18-0.01
	c-0.71,0-1.28,0.57-1.28,1.28c0,0.58,0.38,1.07,0.91,1.23l0.06,0.02c4.23,1.21,7.32,5.1,7.32,9.71c0,5.54-4.46,10.04-9.99,10.1
	l-0.11,0c-0.65,0-1.17,0.52-1.17,1.17C24.88,37.24,25.4,37.76,26.05,37.76z"/>
<path class="st2" d="M25.39,13.07h-0.08c-3.9,0.01-7.33,1.12-10.21,2.65l7.44-7.23c0.74-0.72,0.76-1.9,0.04-2.64
	c-0.72-0.74-1.9-0.76-2.64-0.04l-7.37,7.16l2.72-7.37c0.36-0.97-0.14-2.04-1.1-2.4c-0.97-0.36-2.04,0.14-2.4,1.1l-3.53,9.56v-4.6
	c0-1.03-0.84-1.87-1.87-1.87c-1.03,0-1.57,0.86-1.87,1.87c0,0-2.83,8.82,0,16.04s11.57,11.64,17.59,12.42l0.18,0.01
	c0.71,0,1.28-0.57,1.28-1.28c0-0.58-0.38-1.07-0.91-1.23l-0.06-0.02c-4.23-1.21-7.32-5.1-7.32-9.71c0-5.54,4.46-10.04,9.99-10.1
	l0.11,0c0.65,0,1.17-0.52,1.17-1.17S26.03,13.07,25.39,13.07z"/>
<path class="st0" d="M25.62,1.9c0.13-0.02,0.55-0.06,1.25-0.12c0.07,0,0.15-0.01,0.25-0.02c0.09-0.01,0.16-0.02,0.2-0.02
	c0.29-0.02,0.5,0.03,0.64,0.13c0.05,0.03,0.1,0.07,0.15,0.12c0.05,0.04,0.08,0.11,0.08,0.2c0.03,0.46,0.07,1.14,0.12,2.05
	c0.09,1.46,0.11,2.3,0.06,2.51c-0.09,0.36-0.39,0.55-0.89,0.59c-0.17,0.01-0.47,0.03-0.89,0.05c-0.41,0.02-0.63,0.05-0.66,0.09
	c-0.02,0.03,0,0.53,0.08,1.49c0.02,0.28,0.03,0.49,0.04,0.63c0.01,0.15,0.02,0.28,0.02,0.38c0.01,0.04,0,0.09-0.04,0.15
	c-0.03,0.06-0.08,0.1-0.14,0.11c-0.05,0.01-0.12,0.02-0.19,0.02c-0.05,0-0.11,0-0.18,0c-0.15,0.01-0.26,0-0.32-0.03
	c-0.07-0.03-0.13-0.06-0.16-0.1c-0.04-0.04-0.06-0.14-0.07-0.28c-0.04-0.62-0.11-1.55-0.2-2.79c-0.03-0.55-0.11-1.64-0.22-3.27
	c-0.04-0.01-0.12-0.02-0.24-0.03c-0.13-0.11-0.19-0.2-0.2-0.29c0-0.04,0.01-0.16,0.03-0.36c0.04-0.31,0.09-0.56,0.16-0.73
	c0.06-0.13,0.16-0.23,0.3-0.29C24.75,2.02,25.09,1.96,25.62,1.9z M27.33,4.33c-0.01-0.07-0.04-0.23-0.08-0.46
	c-0.01-0.07-0.04-0.12-0.08-0.16c-0.04-0.04-0.1-0.05-0.2-0.06c-0.11,0.01-0.28,0.01-0.49,0.02c-0.04,0-0.09,0-0.15,0
	c-0.07,0-0.11,0.01-0.14,0.01c-0.29,0.02-0.45,0.06-0.46,0.14c-0.01,0.06,0,0.26,0.02,0.61c0.01,0.09,0.01,0.22,0.02,0.38
	c0.01,0.1,0.02,0.3,0.06,0.6c0,0.07,0.02,0.13,0.05,0.19c0.04,0.06,0.08,0.09,0.13,0.08c0.05-0.01,0.13-0.02,0.23-0.03
	c0.49-0.04,0.81-0.11,0.96-0.2c0.15-0.09,0.21-0.29,0.19-0.59C27.38,4.72,27.36,4.54,27.33,4.33z"/>
<path class="st0" d="M31.15,4.93c0.06,0.01,0.11,0.02,0.15,0.02c0.04,0.01,0.08,0.01,0.13,0.02c0.05,0.02,0.09,0.04,0.11,0.06
	c0.02,0.03,0.03,0.07,0.04,0.13c0.02,0.13,0.01,0.28,0,0.44l-0.03,0.25c-0.04,0.21-0.09,0.52-0.17,0.92
	c-0.1,0.45-0.18,0.96-0.26,1.54c-0.01,0.1-0.03,0.22-0.05,0.37c-0.03,0.16-0.05,0.28-0.05,0.37c-0.04,0.37-0.07,0.58-0.09,0.64
	c-0.04,0.07-0.08,0.11-0.14,0.12c-0.14,0.03-0.36,0.03-0.67,0.01c-0.17-0.02-0.29-0.03-0.36-0.04c-0.07,0-0.11,0-0.14-0.01
	c-0.03-0.01-0.05-0.04-0.08-0.09c-0.03-0.06-0.03-0.12-0.02-0.19c0.01-0.07,0.02-0.14,0.02-0.2c0-0.01,0.01-0.04,0.01-0.09
	c0.03-0.22,0.12-0.82,0.28-1.82c0.13-0.8,0.23-1.37,0.29-1.69c0.03-0.17,0.06-0.31,0.09-0.41c0.05-0.15,0.11-0.24,0.18-0.27
	C30.52,4.96,30.78,4.94,31.15,4.93z M31.51,2.55c0.06,0.01,0.11,0.02,0.15,0.02c0.04,0.01,0.08,0.01,0.13,0.02
	c0.05,0.02,0.09,0.04,0.11,0.06c0.02,0.03,0.03,0.07,0.04,0.13c0,0.05,0,0.12,0,0.23c-0.01,0.11-0.02,0.2-0.03,0.29
	c-0.01,0.2-0.03,0.36-0.04,0.46c-0.01,0.09-0.02,0.15-0.03,0.18c-0.04,0.07-0.09,0.11-0.15,0.11c-0.13,0.03-0.35,0.03-0.67,0.01
	c-0.16-0.01-0.28-0.02-0.35-0.03c-0.07-0.01-0.12-0.02-0.14-0.02c-0.03,0-0.05-0.03-0.08-0.09c-0.03-0.05-0.04-0.11-0.03-0.17
	c0.05-0.34,0.08-0.56,0.1-0.65c0.01-0.08,0.02-0.15,0.04-0.2c0.05-0.15,0.11-0.24,0.18-0.27C30.88,2.59,31.14,2.56,31.51,2.55z"/>
<path class="st0" d="M35.1,2.95c0.47-0.01,1.05,0.08,1.73,0.27c0.08,0.02,0.16,0.04,0.23,0.06c0.22,0.07,0.33,0.13,0.34,0.18
	c0.03,0.13-0.04,0.5-0.21,1.1c-0.1,0.34-0.17,0.55-0.23,0.64c-0.1,0.15-0.21,0.21-0.33,0.18c-0.09-0.02-0.17-0.06-0.24-0.11
	c-0.07-0.06-0.11-0.12-0.12-0.18c0-0.05,0.03-0.15,0.07-0.3c0.05-0.15,0.08-0.27,0.09-0.36c0.01-0.05,0-0.09-0.02-0.1
	c-0.02-0.01-0.03-0.02-0.05-0.03c-0.09-0.03-0.18-0.05-0.26-0.07c-0.08-0.02-0.15-0.03-0.2-0.03c-0.04,0.01-0.07,0.04-0.1,0.08
	c-0.06,0.11-0.25,0.66-0.57,1.65C34.9,6.91,34.6,7.9,34.33,8.87c-0.07,0.25-0.18,0.61-0.31,1.11c-0.03,0.14-0.04,0.23-0.02,0.27
	c0.01,0.04,0.05,0.08,0.12,0.1c0.12,0.04,0.3,0.09,0.54,0.16c0.23,0.08,0.42,0.13,0.55,0.18c0.03,0,0.06,0.02,0.08,0.05
	c0.02,0.02,0.03,0.05,0.03,0.09c0,0.03,0,0.07-0.02,0.12c-0.02,0.07-0.07,0.17-0.13,0.29c-0.12,0.2-0.22,0.31-0.29,0.35
	c-0.03,0.01-0.07,0.02-0.12,0.01c-0.05,0-0.09,0-0.12-0.02c-0.17-0.05-0.55-0.16-1.13-0.34c-0.1-0.03-0.2-0.06-0.29-0.09
	c-0.65-0.21-0.99-0.34-1.04-0.41c-0.09-0.09-0.13-0.21-0.13-0.35c0-0.14,0.07-0.44,0.19-0.9c0.12-0.51,0.39-1.42,0.79-2.73
	c0.15-0.48,0.28-0.92,0.41-1.3c0.29-0.92,0.52-1.56,0.67-1.94c0.14-0.31,0.3-0.49,0.49-0.54C34.63,2.96,34.8,2.96,35.1,2.95z"/>
<path class="st0" d="M42.92,5.96c0.17-0.03,0.31-0.02,0.42,0.05c0.03,0.02,0.05,0.03,0.08,0.05c0.09,0.08,0.13,0.18,0.14,0.3
	c0,0.11-0.13,0.36-0.38,0.76c-0.12,0.18-0.23,0.34-0.33,0.46c-0.09,0.12-0.2,0.2-0.33,0.24c-0.08,0.03-0.23,0.07-0.47,0.15
	c-1.22,0.38-1.86,0.62-1.94,0.72c-0.05,0.06,0.03,0.45,0.24,1.19c0.23,0.75,0.4,1.34,0.5,1.76c0.03,0.11,0.06,0.26,0.1,0.45
	c0.03,0.17,0.03,0.28-0.01,0.35c-0.01,0.01-0.02,0.02-0.03,0.02c-0.32,0.33-0.58,0.58-0.79,0.74c-0.21,0.16-0.36,0.25-0.46,0.28
	c-0.07,0.01-0.14,0-0.22-0.04c-0.08-0.03-0.13-0.05-0.13-0.07c-0.01-0.01-0.03-0.02-0.06-0.04c-0.05-0.05-0.11-0.17-0.18-0.36
	c-0.08-0.19-0.19-0.55-0.33-1.08c-0.31-1.17-0.52-1.89-0.63-2.16c-0.02,0-0.05-0.01-0.07-0.02c-0.02,0-0.05,0.01-0.08,0.03
	c-0.16,0.23-0.3,0.42-0.42,0.59c-0.11,0.17-0.24,0.37-0.39,0.59c-0.06,0.09-0.19,0.28-0.37,0.57c-0.18,0.29-0.31,0.47-0.37,0.54
	c-0.07,0.06-0.18,0.08-0.33,0.04c-0.1-0.02-0.18-0.05-0.26-0.1c-0.05-0.03-0.09-0.06-0.12-0.09c-0.06-0.05-0.1-0.11-0.11-0.17
	c-0.01-0.06,0.02-0.13,0.07-0.22c0.01-0.01,0.01-0.02,0.02-0.03c0.39-0.57,0.94-1.38,1.65-2.45c0.71-1.07,1.32-1.94,1.81-2.61
	c0.53-0.74,0.91-1.28,1.15-1.61c0.08-0.08,0.15-0.11,0.21-0.1c0.03,0.01,0.08,0.04,0.13,0.08c0.24,0.27,0.32,0.51,0.25,0.72
	c-0.08,0.14-0.18,0.29-0.3,0.47c-0.12,0.18-0.29,0.44-0.53,0.79c0.04,0.03,0.5-0.09,1.36-0.37c0.18-0.05,0.39-0.11,0.63-0.18
	c0.24-0.07,0.44-0.12,0.58-0.17C42.78,6,42.88,5.98,42.92,5.96z"/>
<path class="st0" d="M9,35.17c-0.08,0.09-0.18,0.18-0.29,0.27c-0.11,0.09-0.23,0.19-0.37,0.29c-0.28,0.2-0.47,0.31-0.57,0.33
	c-0.1,0.04-0.16,0.04-0.21,0.02c-0.04-0.03-0.07-0.04-0.08-0.05c-0.24-0.21-0.59-0.54-1.04-0.97c-0.03,0-0.22,0.16-0.59,0.47
	c-0.38,0.31-0.93,0.77-1.66,1.37c-0.82,0.69-1.39,1.16-1.72,1.42c-0.11,0.08-0.24,0.02-0.41-0.18c-0.01-0.02-0.03-0.03-0.05-0.05
	c-0.19-0.24-0.23-0.41-0.12-0.5c0.29-0.24,0.86-0.73,1.71-1.47c1.38-1.17,2.09-1.79,2.11-1.85c-0.44-0.55-0.74-0.94-0.89-1.18
	c-0.05-0.14-0.04-0.24,0.03-0.31c0.24-0.19,0.48-0.35,0.72-0.48c0.23-0.14,0.42-0.22,0.57-0.27c0.04,0,0.07,0,0.11,0.01
	c0.03,0.02,0.08,0.04,0.13,0.06c0.09,0.06,0.22,0.18,0.4,0.36c0.18,0.18,0.47,0.48,0.85,0.91c0.34,0.36,0.62,0.66,0.84,0.9
	c0.21,0.23,0.37,0.39,0.46,0.49c0.03,0.03,0.05,0.06,0.06,0.08c0.08,0.1,0.12,0.15,0.1,0.17C9.09,35.05,9.05,35.1,9,35.17z"/>
<path class="st0" d="M12.75,38.51c0.12-0.07,0.26-0.03,0.42,0.09c0.02,0.02,0.04,0.03,0.05,0.05c0.18,0.17,0.23,0.32,0.14,0.48
	c-0.14,0.27-0.74,1.13-1.82,2.59c-1.07,1.47-1.78,2.43-2.15,2.88c-0.13,0.16-0.23,0.25-0.31,0.27c-0.08,0.02-0.21-0.02-0.39-0.12
	c-0.24-0.14-0.73-0.51-1.47-1.11c-0.15-0.12-0.31-0.25-0.49-0.39c-0.28-0.23-0.7-0.57-1.27-1.02c-0.13-0.1-0.2-0.22-0.22-0.33
	c-0.03-0.12,0.04-0.28,0.19-0.5c0.3-0.36,0.76-0.97,1.4-1.84c0.62-0.82,1.41-1.83,2.37-3.02c0.05-0.06,0.1-0.12,0.15-0.18
	c0.11-0.13,0.2-0.2,0.28-0.19c0.08,0.01,0.18,0.04,0.29,0.1c0.13,0.07,0.23,0.15,0.29,0.23c0.06,0.09,0.04,0.21-0.04,0.39
	c-1.04,1.54-1.84,2.75-2.41,3.61c-0.09,0.17-0.13,0.3-0.12,0.38c0.01,0.08,0.1,0.18,0.27,0.32c0.47,0.38,0.77,0.62,0.9,0.73
	c0.12,0.11,0.28,0.19,0.45,0.23c0.2,0.02,0.36-0.03,0.49-0.17c0.13-0.13,0.23-0.24,0.29-0.31c0.16-0.21,0.49-0.61,0.98-1.22
	C12.02,39.25,12.59,38.6,12.75,38.51z"/>
<path class="st0" d="M16.18,39.6c0.38,0.04,0.75,0.1,1.11,0.18c0.28,0.07,0.46,0.13,0.54,0.2c0.05,0.06,0.07,0.17,0.06,0.33
	c-0.02,0.16-0.12,0.57-0.28,1.23c-0.1,0.41-0.17,0.71-0.22,0.89c-0.05,0.18-0.11,0.35-0.17,0.52c-0.05,0.17-0.12,0.27-0.19,0.3
	c-0.07,0.04-0.14,0.06-0.22,0.07c-0.07,0.01-0.19,0.02-0.34,0.01c-0.34-0.01-0.54,0.01-0.6,0.05c-0.01,0.01-0.01,0.02-0.02,0.03
	c-0.02,0.07,0.06,0.25,0.23,0.54c1,1.69,1.49,2.67,1.48,2.95c0,0.03-0.01,0.08-0.02,0.13c-0.12,0.18-0.25,0.28-0.41,0.29
	c-0.06-0.02-0.34-0.5-0.82-1.45c-0.7-1.27-1.11-1.92-1.24-1.94c-0.02,0-0.11,0.32-0.26,0.97c-0.03,0.14-0.08,0.35-0.15,0.63
	c-0.02,0.1-0.05,0.22-0.09,0.38c-0.03,0.16-0.06,0.27-0.07,0.33c-0.09,0.37-0.18,0.63-0.26,0.78c-0.08,0.15-0.17,0.25-0.25,0.29
	c-0.09,0.04-0.27,0.07-0.55,0.1c-0.04,0.01-0.06,0.01-0.09,0.01c-0.28,0.03-0.44,0.04-0.5,0.03c-0.03-0.01-0.1-0.06-0.21-0.14
	c-0.11-0.08-0.16-0.17-0.14-0.26c0.04-0.29,0.15-0.85,0.33-1.67c0.18-0.82,0.36-1.64,0.56-2.45c0.05-0.22,0.13-0.55,0.24-0.99
	c0.33-1.37,0.53-2.08,0.62-2.14c0.09-0.08,0.36-0.14,0.8-0.19C15.47,39.57,15.85,39.56,16.18,39.6z M17.17,40.55
	c-0.06-0.08-0.15-0.15-0.29-0.21c-0.02-0.01-0.07-0.03-0.14-0.05c-0.15-0.04-0.31-0.06-0.49-0.06c-0.18-0.01-0.28,0-0.32,0.03
	c-0.02,0.03-0.13,0.38-0.32,1.07c-0.05,0.18-0.12,0.45-0.22,0.82c-0.03,0.08-0.03,0.14-0.01,0.18c0.02,0.04,0.05,0.06,0.1,0.07
	c0.22,0.05,0.47,0.07,0.75,0.07c0.28-0.01,0.45-0.04,0.52-0.1c0.09-0.09,0.2-0.39,0.32-0.9C17.19,40.95,17.23,40.64,17.17,40.55z"/>
<path class="st0" d="M20.68,40.07c0.77-0.17,1.23-0.26,1.38-0.28c0.33-0.05,0.55-0.03,0.67,0.06c0.08,0.05,0.15,0.15,0.2,0.3
	c0.06,0.15,0.14,0.49,0.25,1.02c0.11,0.51,0.18,0.9,0.22,1.16c0.02,0.14,0.03,0.22,0.03,0.25c-0.01,0.15-0.09,0.26-0.24,0.34
	c-0.15,0.08-0.46,0.19-0.93,0.31c-0.58,0.15-0.9,0.26-0.95,0.33c-0.05,0.05,0.01,0.65,0.18,1.79c0.15,1,0.26,1.52,0.35,1.58
	c0.05,0.03,0.16,0.03,0.32,0.01c0.16-0.02,0.39-0.07,0.67-0.13c0.28-0.06,0.44-0.1,0.47-0.11c0.08-0.03,0.13-0.07,0.15-0.13
	c0.01-0.05,0.02-0.11,0.01-0.17c0-0.08-0.01-0.17-0.03-0.28c-0.04-0.28-0.04-0.48-0.01-0.59c0.04-0.1,0.14-0.17,0.29-0.19
	c0.17-0.03,0.3,0.02,0.38,0.15c0.08,0.12,0.17,0.37,0.27,0.77c0.06,0.29,0.09,0.47,0.1,0.54c0.07,0.46,0.03,0.75-0.1,0.86
	c-0.1,0.08-0.67,0.21-1.72,0.39c-0.11,0.02-0.24,0.04-0.39,0.07c-0.16,0.02-0.28,0.04-0.35,0.05c-0.52,0.08-0.88,0.1-1.07,0.08
	c-0.19-0.03-0.35-0.13-0.48-0.31c-0.13-0.16-0.22-0.37-0.29-0.61c-0.07-0.25-0.16-0.71-0.26-1.4c-0.03-0.2-0.12-0.85-0.27-1.96
	c-0.08-0.65-0.21-1.63-0.38-2.93c-0.02-0.06,0-0.13,0.05-0.22c0.05-0.1,0.15-0.2,0.29-0.32C19.71,40.36,20.12,40.21,20.68,40.07z
	 M22.46,41.28c0-0.05-0.01-0.1-0.01-0.15c0-0.05,0-0.08-0.01-0.11c0-0.01-0.01-0.06-0.02-0.15c-0.02-0.1-0.09-0.14-0.2-0.13
	c-0.09,0.01-0.23,0.03-0.41,0.06c-0.45,0.07-0.72,0.15-0.8,0.23c-0.08,0.08-0.1,0.27-0.06,0.58c0.05,0.33,0.1,0.56,0.17,0.71
	c0.02,0.05,0.04,0.09,0.07,0.13c0.02,0.04,0.07,0.05,0.16,0.03c0.05-0.01,0.1-0.02,0.17-0.04c0.06-0.02,0.14-0.04,0.22-0.07
	c0.36-0.09,0.58-0.2,0.67-0.33C22.47,41.93,22.49,41.67,22.46,41.28z"/>
</svg>
